<svg width="28" height="28" viewBox="0 0 28 28" fill="none" xmlns="http://www.w3.org/2000/svg">
<rect width="28" height="28" rx="4" fill="#C6E8E8"/>
<path fill-rule="evenodd" clip-rule="evenodd" d="M13.9778 19.6367C17.1031 19.6367 19.6367 17.1031 19.6367 13.9778C19.6367 10.8524 17.1031 8.31885 13.9778 8.31885C10.8524 8.31885 8.31885 10.8524 8.31885 13.9778C8.31885 17.1031 10.8524 19.6367 13.9778 19.6367ZM13.9778 17.7504C16.0613 17.7504 17.7504 16.0613 17.7504 13.9778C17.7504 11.8942 16.0613 10.2052 13.9778 10.2052C11.8942 10.2052 10.2052 11.8942 10.2052 13.9778C10.2052 16.0613 11.8942 17.7504 13.9778 17.7504Z" fill="#274443"/>
<path d="M19.6368 7.37598C19.1159 7.37598 18.6936 7.79825 18.6936 8.31913C18.6936 8.84002 19.1159 9.26229 19.6368 9.26229C20.1577 9.26229 20.5799 8.84002 20.5799 8.31913C20.5799 7.79825 20.1577 7.37598 19.6368 7.37598Z" fill="#274443"/>
<path fill-rule="evenodd" clip-rule="evenodd" d="M4.12423 6.62715C3.5 7.85228 3.5 9.45607 3.5 12.6636V15.3364C3.5 18.5439 3.5 20.1477 4.12423 21.3728C4.67333 22.4505 5.54949 23.3267 6.62715 23.8757C7.85228 24.5 9.45607 24.5 12.6636 24.5H15.3364C18.5439 24.5 20.1477 24.5 21.3728 23.8757C22.4505 23.3267 23.3267 22.4505 23.8757 21.3728C24.5 20.1477 24.5 18.5439 24.5 15.3364V12.6636C24.5 9.45607 24.5 7.85228 23.8757 6.62715C23.3267 5.54949 22.4505 4.67333 21.3728 4.12423C20.1477 3.5 18.5439 3.5 15.3364 3.5H12.6636C9.45607 3.5 7.85228 3.5 6.62715 4.12423C5.54949 4.67333 4.67333 5.54949 4.12423 6.62715ZM15.3364 5.40909H12.6636C11.0283 5.40909 9.91669 5.41058 9.05744 5.48078C8.22046 5.54916 7.79244 5.67311 7.49386 5.82524C6.77542 6.19131 6.19131 6.77542 5.82524 7.49386C5.67311 7.79244 5.54916 8.22046 5.48078 9.05744C5.41058 9.91669 5.40909 11.0283 5.40909 12.6636V15.3364C5.40909 16.9717 5.41058 18.0833 5.48078 18.9425C5.54916 19.7796 5.67311 20.2076 5.82524 20.5062C6.19131 21.2246 6.77542 21.8087 7.49386 22.1747C7.79244 22.3269 8.22046 22.4509 9.05744 22.5192C9.91669 22.5894 11.0283 22.5909 12.6636 22.5909H15.3364C16.9717 22.5909 18.0833 22.5894 18.9425 22.5192C19.7796 22.4509 20.2076 22.3269 20.5062 22.1747C21.2246 21.8087 21.8087 21.2246 22.1747 20.5062C22.3269 20.2076 22.4509 19.7796 22.5192 18.9425C22.5894 18.0833 22.5909 16.9717 22.5909 15.3364V12.6636C22.5909 11.0283 22.5894 9.91669 22.5192 9.05744C22.4509 8.22046 22.3269 7.79244 22.1747 7.49386C21.8087 6.77542 21.2246 6.19131 20.5062 5.82524C20.2076 5.67311 19.7796 5.54916 18.9425 5.48078C18.0833 5.41058 16.9717 5.40909 15.3364 5.40909Z" fill="#274443"/>
</svg>
