<svg width="60" height="60" viewBox="0 0 60 60" fill="none" xmlns="http://www.w3.org/2000/svg">
<rect width="60" height="60" rx="30" fill="#C6E8E8"/>
<path d="M27.1558 12H34.0595M30.6076 32.16V25.44M16.8003 30.48C17.2229 27.214 18.8622 24.2126 21.4072 22.045C23.9522 19.8773 27.226 18.6942 30.6076 18.72C32.8411 18.7223 35.0406 19.252 37.0175 20.2635C38.9944 21.2751 40.6897 22.7383 41.958 24.5278C43.2263 26.3173 44.0297 28.3795 44.2993 30.5376C44.5689 32.6957 44.2967 34.8852 43.5059 36.9184C42.7152 38.9516 41.4296 40.7677 39.7593 42.211C38.0891 43.6543 36.0841 44.6816 33.9163 45.2049C31.7486 45.7281 29.4828 45.7317 27.3133 45.2153C25.1438 44.6989 23.1353 43.678 21.4603 42.24L16.8003 38.208M25.4299 37.2H16.8003V45.6" stroke="#274443" stroke-width="2.86" stroke-linecap="round" stroke-linejoin="round"/>
</svg>
